<svg width="177" height="38" viewBox="0 0 177 38" fill="none" xmlns="http://www.w3.org/2000/svg">
<g id="Group 128">
<g id="Group 135">
<rect id="Rectangle 51" width="177" height="38" rx="10" fill="#A4ABD9"/>
</g>
<g id="Group">
<path id="Vector" d="M81.3199 9.07603C80.7749 9.21786 80.3182 9.58762 80.0535 10.0992C79.8926 10.4133 79.8926 10.4133 79.6643 12.49L79.4774 14.1869L78.5172 14.2173C77.4584 14.2477 77.282 14.2882 76.8304 14.5921C76.5138 14.8049 76.3218 15.0328 76.1401 15.4178L76 15.7065V21.8912V28.0708L76.1972 28.4558C76.4256 28.9066 76.6747 29.1446 77.1678 29.3776L77.5051 29.5347H87.3146C95.0894 29.5347 97.1707 29.5195 97.3419 29.4688C97.861 29.3169 98.4007 28.8205 98.6135 28.2937C98.7173 28.0455 98.7277 27.8986 98.7485 26.8957L98.7692 25.7762L99.3972 25.7813C99.9474 25.7864 100.067 25.7712 100.326 25.6699C100.876 25.4521 101.37 24.8999 101.504 24.3428C101.598 23.9679 102.558 12.5508 102.522 12.2368C102.459 11.6441 102.013 11.016 101.468 10.7476C101.328 10.6767 101.063 10.5956 100.882 10.5652C100.555 10.5095 82.005 8.98992 81.7403 9.00005C81.6677 9.00005 81.4756 9.03551 81.3199 9.07603ZM91.1812 10.7678C96.361 11.1882 100.695 11.5529 100.809 11.5833C101.079 11.6593 101.437 12.0038 101.484 12.2368C101.499 12.3381 101.292 15.048 101.017 18.2594C100.487 24.4491 100.503 24.3124 100.228 24.5555C100.004 24.7531 99.7502 24.8088 99.2415 24.7733L98.764 24.7379L98.7485 20.25L98.7329 15.7571L98.6083 15.4532C98.4371 15.0328 97.918 14.5263 97.4873 14.3591L97.1759 14.2375L88.8612 14.2223L80.5414 14.2122V14.0957C80.5414 13.8779 80.8995 10.7374 80.9358 10.6412C81.0396 10.3575 81.46 10.0182 81.7092 10.008C81.7403 10.008 86.0014 10.3474 91.1812 10.7678ZM97.0202 15.281C97.2848 15.3519 97.5911 15.6508 97.6637 15.9091C97.6949 16.0205 97.7208 16.3548 97.7208 16.6537V17.2007H87.3665H77.0121V16.6284C77.0121 15.9445 77.0588 15.7521 77.2923 15.5343C77.6349 15.2101 76.9602 15.2303 87.3405 15.2253C94.0981 15.2253 96.8696 15.2405 97.0202 15.281ZM97.7104 19.2876L97.7208 20.3412H87.3665H77.0121V19.2775V18.2138L87.3561 18.2239L97.6949 18.2391L97.7104 19.2876ZM97.7208 24.5049C97.7208 26.5512 97.7001 27.7264 97.6637 27.853C97.6378 27.9594 97.5392 28.1215 97.4561 28.2177C97.1343 28.5773 97.9232 28.552 87.2575 28.5368L77.6557 28.5216L77.4688 28.4C77.3702 28.3342 77.2301 28.1974 77.1626 28.1012L77.038 27.9188L77.0225 24.6365L77.0121 21.3543H87.3665H97.7208V24.5049Z" fill="#3B457B"/>
<path id="Vector_2" d="M90.1792 23.0156L90.0391 23.1575V24.9455V26.7336L90.1896 26.8805L90.3401 27.0273H93.0234C94.7621 27.0273 95.7379 27.0071 95.8053 26.9767C96.0441 26.8501 96.0596 26.7336 96.0596 24.9506C96.0596 23.1676 96.0441 23.0511 95.8053 22.9245C95.7379 22.8941 94.7569 22.8738 93.013 22.8738H90.3193L90.1792 23.0156ZM95.0216 24.9506V26.0143H93.0494H91.0771V24.9506V23.8869H93.0494H95.0216V24.9506Z" fill="#3B457B"/>
</g>
</g>
</svg>
