<svg width="177" height="38" viewBox="0 0 177 38" fill="none" xmlns="http://www.w3.org/2000/svg">
<rect width="177" height="38" rx="10" fill="#A4ABD9"/>
<path d="M67.0384 9.9698C66.2344 9.32395 65.1851 9.00024 63.8907 9.00024H58.8795C58.4827 9.00024 58.2635 9.23212 58.2218 9.69531L56.1861 24.6257C56.1649 24.7724 56.1963 24.9065 56.28 25.0284C56.3632 25.1507 56.4678 25.2114 56.5931 25.2114H58.9734C59.3909 25.2114 59.6204 24.9801 59.6625 24.5161L60.2262 20.491C60.2468 20.2959 60.3202 20.1373 60.4455 20.0152C60.5707 19.8933 60.7273 19.8134 60.9153 19.7769C61.1032 19.7407 61.2804 19.7225 61.4477 19.7225C61.6146 19.7225 61.8129 19.7348 62.0429 19.759C62.2724 19.7834 62.4187 19.7953 62.4814 19.7953C64.2769 19.7953 65.6863 19.2041 66.7096 18.0206C67.7324 16.8375 68.2444 15.1969 68.2444 13.0985C68.2444 11.6592 67.8421 10.6162 67.0384 9.96936V9.9698ZM64.4546 14.453C64.3499 15.307 64.0788 15.8678 63.6403 16.1363C63.2017 16.4051 62.5754 16.5386 61.7612 16.5386L60.7275 16.5753L61.2601 12.6596C61.3016 12.3915 61.4373 12.2572 61.6672 12.2572H62.2624C63.0972 12.2572 63.7031 12.3978 64.0789 12.6779C64.4546 12.9587 64.5799 13.5506 64.4546 14.453Z" fill="#003087"/>
<path d="M119.921 9H117.603C117.373 9 117.238 9.13423 117.196 9.40257L115.16 24.6261L115.129 24.6992C115.129 24.8218 115.171 24.9371 115.254 25.047C115.338 25.1565 115.442 25.2115 115.568 25.2115H117.635C118.031 25.2115 118.25 24.9802 118.293 24.5163L120.328 9.54899V9.51263C120.328 9.17114 120.192 9.00034 119.921 9.00034V9Z" fill="#009CDE"/>
<path d="M91.9241 14.8925C91.9241 14.7708 91.8821 14.6547 91.799 14.5451C91.7153 14.4353 91.6213 14.3802 91.5171 14.3802H89.1055C88.8754 14.3802 88.6875 14.5028 88.5416 14.7461L85.2217 20.4552L83.8438 14.9659C83.7388 14.5757 83.5094 14.3802 83.1547 14.3802H80.8054C80.7008 14.3802 80.6068 14.4352 80.5238 14.5451C80.44 14.6547 80.3984 14.7709 80.3984 14.8925C80.3984 14.9417 80.6021 15.661 81.0091 17.0516C81.4162 18.4424 81.8547 19.9429 82.3246 21.5531C82.7944 23.1632 83.0395 24.0174 83.0606 24.1144C81.3483 26.847 80.4924 28.311 80.4924 28.5058C80.4924 28.8233 80.6281 28.9817 80.8996 28.9817H83.3112C83.5409 28.9817 83.7287 28.86 83.8751 28.6158L91.8617 15.1484C91.9032 15.1 91.9241 15.015 91.9241 14.8924V14.8925Z" fill="#003087"/>
<path d="M114.379 14.3802H111.998C111.706 14.3802 111.529 14.7827 111.466 15.5879C110.923 14.6125 109.932 14.1239 108.491 14.1239C106.987 14.1239 105.708 14.7827 104.654 16.1002C103.599 17.4177 103.072 18.9671 103.072 20.7479C103.072 22.1875 103.432 23.3341 104.153 24.1876C104.873 25.0421 105.839 25.4685 107.05 25.4685C107.655 25.4685 108.271 25.3218 108.898 25.0293C109.524 24.7366 110.014 24.3465 110.37 23.8583C110.37 23.8828 110.349 23.9923 110.307 24.1874C110.265 24.3829 110.245 24.5297 110.245 24.6265C110.245 25.0174 110.38 25.212 110.652 25.212H112.813C113.209 25.212 113.439 24.9807 113.502 24.5167L114.786 14.9655C114.807 14.8191 114.775 14.6851 114.692 14.5629C114.608 14.4413 114.504 14.3802 114.379 14.3802ZM110.292 21.5895C109.759 22.1994 109.117 22.5043 108.365 22.5043C107.76 22.5043 107.269 22.3095 106.893 21.9189C106.517 21.5293 106.329 20.9925 106.329 20.3086C106.329 19.4066 106.59 18.6437 107.113 18.0216C107.634 17.3995 108.282 17.0884 109.054 17.0884C109.639 17.0884 110.124 17.2897 110.511 17.6921C110.897 18.0946 111.09 18.6499 111.09 19.3574C111.09 20.2356 110.824 20.9798 110.292 21.5895Z" fill="#009CDE"/>
<path d="M78.7989 14.3802H76.4186C76.1258 14.3802 75.9487 14.7827 75.886 15.5879C75.3223 14.6125 74.3304 14.1239 72.9106 14.1239C71.4072 14.1239 70.1281 14.7827 69.0738 16.1002C68.0192 17.4177 67.4922 18.9671 67.4922 20.7479C67.4922 22.1875 67.8524 23.3341 68.5728 24.1876C69.2932 25.0421 70.2587 25.4685 71.4699 25.4685C72.0542 25.4685 72.6601 25.3218 73.2864 25.0293C73.9128 24.7366 74.4139 24.3465 74.7898 23.8583C74.706 24.1509 74.6645 24.4072 74.6645 24.6265C74.6645 25.0174 74.8001 25.212 75.0716 25.212H77.2327C77.6291 25.212 77.8591 24.9807 77.9218 24.5167L79.2058 14.9655C79.2264 14.8191 79.1951 14.6851 79.1119 14.5629C79.0284 14.4413 78.9241 14.3802 78.7989 14.3802ZM74.7116 21.6076C74.179 22.2061 73.5262 22.5043 72.7541 22.5043C72.1482 22.5043 71.6628 22.3095 71.2977 21.9189C70.9321 21.5293 70.7495 20.9925 70.7495 20.3086C70.7495 19.4066 71.0104 18.6437 71.5326 18.0216C72.0542 17.3995 72.7016 17.0884 73.4744 17.0884C74.0588 17.0884 74.5442 17.2897 74.9309 17.6922C75.3169 18.0948 75.5103 18.65 75.5103 19.3575C75.5103 20.2601 75.244 21.0105 74.7116 21.6076Z" fill="#003087"/>
<path d="M102.619 9.9698C101.815 9.32395 100.766 9.00024 99.471 9.00024H94.491C94.0732 9.00024 93.8434 9.23212 93.802 9.69531L91.7662 24.6257C91.745 24.7725 91.7763 24.9066 91.8601 25.0285C91.9429 25.1507 92.0479 25.2114 92.1732 25.2114H94.7413C94.9919 25.2114 95.1588 25.053 95.2425 24.7358L95.8064 20.491C95.827 20.2959 95.9002 20.1373 96.0256 20.0152C96.1509 19.8933 96.3073 19.8135 96.4955 19.7769C96.6833 19.7407 96.8604 19.7225 97.0279 19.7225C97.1948 19.7225 97.393 19.7348 97.6228 19.759C97.8525 19.7834 97.9991 19.7953 98.0613 19.7953C99.8572 19.7953 101.266 19.2041 102.29 18.0206C103.313 16.8375 103.824 15.1969 103.824 13.0985C103.824 11.6593 103.422 10.6163 102.619 9.96947V9.9698ZM99.4083 15.9898C98.9489 16.3557 98.2598 16.5386 97.3412 16.5386L96.3389 16.5753L96.8714 12.6596C96.9128 12.3915 97.0484 12.2572 97.2784 12.2572H97.842C98.3013 12.2572 98.6667 12.2816 98.9385 12.3303C99.2096 12.3795 99.471 12.5315 99.7215 12.7877C99.9722 13.0439 100.097 13.4161 100.097 13.904C100.097 14.9286 99.8674 15.6237 99.4083 15.9898Z" fill="#009CDE"/>
</svg>
