<svg width="44" height="32" viewBox="0 0 44 32" fill="none" xmlns="http://www.w3.org/2000/svg">
<path id="Vector" d="M42.7718 5.5C42.3651 3.30078 40.427 1.69922 38.178 1.19922C34.8124 0.5 28.5837 0 21.8445 0C15.1093 0 8.78086 0.5 5.41127 1.19922C3.16621 1.69922 1.22422 3.19922 0.817473 5.5C0.406743 8 0 11.5 0 16C0 20.5 0.406743 24 0.917166 26.5C1.3279 28.6992 3.26591 30.3008 5.51097 30.8008C9.08392 31.5 15.209 32 21.9482 32C28.6873 32 34.8124 31.5 38.3854 30.8008C40.6304 30.3008 42.5684 28.8008 42.9792 26.5C43.3859 24 43.8963 20.3984 44 16C43.7926 11.5 43.2822 8 42.7718 5.5ZM16.3335 23V9L28.787 16L16.3335 23Z" fill="#3B457B"/>
</svg>
